<?xml version="1.0" encoding="UTF-8" standalone="no"?>
<!-- Created with Inkscape (http://www.inkscape.org/) -->

<svg
   xmlns:dc="http://purl.org/dc/elements/1.1/"
   xmlns:cc="http://creativecommons.org/ns#"
   xmlns:rdf="http://www.w3.org/1999/02/22-rdf-syntax-ns#"
   xmlns:svg="http://www.w3.org/2000/svg"
   xmlns="http://www.w3.org/2000/svg"
   xmlns:sodipodi="http://sodipodi.sourceforge.net/DTD/sodipodi-0.dtd"
   xmlns:inkscape="http://www.inkscape.org/namespaces/inkscape"
   width="1024"
   height="768"
   id="svg2"
   version="1.1"
   inkscape:version="0.48.2 r9819"
   sodipodi:docname="learning curve.svg"
   inkscape:export-filename="/Volumes/HomeDirs/dcarter/projects/presentations/Acme-A-User-Interface-for-Programmers/emacs.png"
   inkscape:export-xdpi="90"
   inkscape:export-ydpi="90">
  <defs
     id="defs4" />
  <sodipodi:namedview
     id="base"
     pagecolor="#ffffff"
     bordercolor="#666666"
     borderopacity="1.0"
     inkscape:pageopacity="0.0"
     inkscape:pageshadow="2"
     inkscape:zoom="1.0416667"
     inkscape:cx="434.24"
     inkscape:cy="537.6"
     inkscape:document-units="px"
     inkscape:current-layer="layer5"
     showgrid="true"
     inkscape:window-width="1680"
     inkscape:window-height="1002"
     inkscape:window-x="0"
     inkscape:window-y="0"
     inkscape:window-maximized="1">
    <inkscape:grid
       type="xygrid"
       id="grid2985"
       empspacing="5"
       visible="true"
       enabled="true"
       snapvisiblegridlinesonly="true" />
  </sodipodi:namedview>
  <metadata
     id="metadata7">
    <rdf:RDF>
      <cc:Work
         rdf:about="">
        <dc:format>image/svg+xml</dc:format>
        <dc:type
           rdf:resource="http://purl.org/dc/dcmitype/StillImage" />
        <dc:title></dc:title>
      </cc:Work>
    </rdf:RDF>
  </metadata>
  <g
     inkscape:label="chart"
     inkscape:groupmode="layer"
     id="layer1"
     transform="translate(0,-284.36218)"
     sodipodi:insensitive="true">
    <path
       style="fill:none;stroke:#000000;stroke-width:4;stroke-linecap:butt;stroke-linejoin:miter;stroke-miterlimit:4;stroke-opacity:1;stroke-dasharray:none"
       d="m 100,48 0,630 0,0 0,0 c 0,0 0,630 0,-630 z"
       id="path3755"
       inkscape:connector-curvature="0"
       transform="translate(0,284.36218)" />
    <path
       inkscape:connector-curvature="0"
       id="path3757"
       d="m 970,962.36218 -870,0 0,0 0,0 c 0,0 -870.00003,0 870,0 z"
       style="fill:none;stroke:#000000;stroke-width:4.70055723;stroke-linecap:butt;stroke-linejoin:miter;stroke-miterlimit:4;stroke-opacity:1;stroke-dasharray:none" />
  </g>
  <g
     inkscape:groupmode="layer"
     id="layer2"
     inkscape:label="Nano"
     style="display:none">
    <path
       style="fill:none;stroke:#ff0000;stroke-width:3;stroke-linecap:butt;stroke-linejoin:miter;stroke-miterlimit:4;stroke-opacity:1;stroke-dasharray:none"
       d="m 100,678 60,-30 0,0 z"
       id="path3760"
       inkscape:connector-curvature="0" />
    <path
       style="fill:none;stroke:#ff0000;stroke-width:3;stroke-linecap:butt;stroke-linejoin:miter;stroke-miterlimit:4;stroke-opacity:1;stroke-dasharray:none"
       d="m 160,648 810,-10 0,0 z"
       id="path3762"
       inkscape:connector-curvature="0" />
  </g>
  <g
     inkscape:groupmode="layer"
     id="layer3"
     inkscape:label="VIM"
     style="display:none">
    <path
       style="fill:none;stroke:#00ff00;stroke-width:3;stroke-linecap:butt;stroke-linejoin:miter;stroke-miterlimit:4;stroke-opacity:1;stroke-dasharray:none"
       d="m 100,678 710,-520 160,0 -160,0 z"
       id="path3765"
       inkscape:connector-curvature="0"
       sodipodi:nodetypes="ccccc" />
  </g>
  <g
     inkscape:groupmode="layer"
     id="layer4"
     inkscape:label="EMACS"
     style="display:inline">
    <path
       style="fill:none;stroke:#0000ff;stroke-width:3;stroke-linecap:butt;stroke-linejoin:miter;stroke-miterlimit:4;stroke-opacity:1;stroke-dasharray:none"
       d="m 100,678 360,-40 120,-80 60,-150 10,-110 -30,-100 -70,-70 -90,-20 -140,10 -80,70 -40,100 0,80 40,70 110,30 70,10 70,-20 90,-100 -20,-110 -80,-100 -110,10 -90,60 -20,120 60,70 140,10 60,-90 -60,-100 -90,-20 -50,40 -10,70 30,40 50,0 40,-40 -20,-50 -40,-20 -20,30 0,40 40,0 10,-30 -20,-10 -10,10 0,0 0,0 10,-10"
       id="path3770"
       inkscape:connector-curvature="0" />
  </g>
  <g
     inkscape:groupmode="layer"
     id="layer5"
     inkscape:label="Acme"
     style="display:none">
    <path
       style="fill:none;stroke:#00ffff;stroke-width:3;stroke-linecap:butt;stroke-linejoin:miter;stroke-miterlimit:4;stroke-opacity:1;stroke-dasharray:none"
       d="m 100,678 80,-160 0,-30 -20,-20 -30,0 -20,40 10,20 30,0 820,0"
       id="path3773"
       inkscape:connector-curvature="0" />
  </g>
</svg>
